<svg width="14" height="14" viewBox="0 0 14 14" fill="none" xmlns="http://www.w3.org/2000/svg">
<path d="M11.8125 6.125V3.5C11.8125 2.5335 11.029 1.75 10.0625 1.75H3.9375C2.971 1.75 2.1875 2.5335 2.1875 3.5V10.5C2.1875 11.4665 2.971 12.25 3.9375 12.25H8.48158" stroke="#31353A" stroke-width="1.05" stroke-linecap="round" stroke-linejoin="round"/>
<path d="M4.375 4.375H9.625" stroke="#31353A" stroke-width="1.05" stroke-linecap="round" stroke-linejoin="round"/>
<path d="M4.375 7H7" stroke="#31353A" stroke-width="1.05" stroke-linecap="round" stroke-linejoin="round"/>
<path d="M4.375 9.625H5.6875" stroke="#31353A" stroke-width="1.05" stroke-linecap="round" stroke-linejoin="round"/>
<path d="M12.8912 9.43344C13.272 9.57438 13.272 10.1131 12.8912 10.2541L12.3597 10.4507C11.8806 10.628 11.503 11.0056 11.3257 11.4847L11.1291 12.0162C10.9881 12.397 10.4494 12.397 10.3084 12.0162L10.1118 11.4847C9.93452 11.0056 9.55685 10.628 9.07784 10.4507L8.54635 10.2541C8.16545 10.1131 8.16545 9.57438 8.54635 9.43344L9.07784 9.23677C9.55685 9.05952 9.93452 8.68185 10.1118 8.20284L10.3084 7.67135C10.4494 7.29045 10.9881 7.29045 11.1291 7.67135L11.3257 8.20284C11.503 8.68185 11.8806 9.05952 12.3597 9.23677L12.8912 9.43344Z" fill="#31353A"/>
</svg>
