<svg width="16" height="16" viewBox="0 0 16 16" fill="none" xmlns="http://www.w3.org/2000/svg">
<path d="M1.33325 14.6667C1.33325 11.7211 3.72107 9.33332 6.66659 9.33332C9.61212 9.33332 11.9999 11.7211 11.9999 14.6667H10.6666C10.6666 12.4575 8.87572 10.6667 6.66659 10.6667C4.45745 10.6667 2.66659 12.4575 2.66659 14.6667H1.33325ZM6.66659 8.66666C4.45659 8.66666 2.66659 6.87666 2.66659 4.66666C2.66659 2.45666 4.45659 0.666656 6.66659 0.666656C8.87659 0.666656 10.6666 2.45666 10.6666 4.66666C10.6666 6.87666 8.87659 8.66666 6.66659 8.66666ZM6.66659 7.33332C8.13992 7.33332 9.33325 6.13999 9.33325 4.66666C9.33325 3.19332 8.13992 1.99999 6.66659 1.99999C5.19325 1.99999 3.99992 3.19332 3.99992 4.66666C3.99992 6.13999 5.19325 7.33332 6.66659 7.33332ZM12.1891 9.80186C14.0429 10.6374 15.3333 12.5013 15.3333 14.6667H13.9999C13.9999 13.0427 13.0321 11.6447 11.6418 11.0181L12.1891 9.80186ZM11.7307 2.27546C13.0629 2.82468 13.9999 4.13573 13.9999 5.66666C13.9999 7.58012 12.5361 9.15012 10.6666 9.31839V7.97639C11.7977 7.81479 12.6666 6.84266 12.6666 5.66666C12.6666 4.74622 12.1343 3.95068 11.3606 3.57089L11.7307 2.27546Z" fill="#5B6066"/>
</svg>
