<svg width="16" height="16" viewBox="0 0 16 16" fill="none" xmlns="http://www.w3.org/2000/svg">
<path d="M9.33179 3.33374H6.66577C5.60498 3.3338 4.58774 3.75552 3.83765 4.50562C3.08757 5.25575 2.66577 6.27293 2.66577 7.33374C2.66577 9.74059 4.30722 11.3107 7.99976 12.9861V11.3337H9.33179C10.3927 11.3337 11.4107 10.912 12.1609 10.1619C12.9109 9.41175 13.3328 8.39449 13.3328 7.33374H14.6658C14.6655 8.7481 14.1035 10.1042 13.1033 11.1043C12.103 12.1043 10.7462 12.6668 9.33179 12.6668V14.9998C5.99925 13.666 1.33276 11.6661 1.33276 7.33374C1.33276 6.63337 1.47004 5.93979 1.73804 5.29273C2.00606 4.64566 2.39906 4.05752 2.89429 3.56226C3.38955 3.067 3.97767 2.67405 4.62476 2.40601C5.2718 2.13799 5.96541 1.99979 6.66577 1.99976H9.33179V3.33374ZM6.95483 6.61304C7.38762 6.65691 7.72518 7.02223 7.72534 7.46655C7.72516 7.94044 7.34087 8.32495 6.86694 8.32495C6.42273 8.32479 6.05744 7.98709 6.01343 7.55445L6.00854 7.46655L6.01343 7.37866C6.05758 6.94617 6.42283 6.60832 6.86694 6.60816L6.95483 6.61304ZM11.6218 6.61304C12.0545 6.65706 12.3922 7.02234 12.3923 7.46655C12.3921 7.94044 12.0079 8.32495 11.5339 8.32495C11.06 8.32495 10.6757 7.94044 10.6755 7.46655C10.6757 6.99266 11.06 6.60816 11.5339 6.60816L11.6218 6.61304ZM11.824 1.37476L12.3093 1.57007C13.002 1.84591 13.7742 1.84486 14.4666 1.56812L14.8767 1.40698C14.9392 1.38096 15.0086 1.37378 15.075 1.38745C15.1411 1.40116 15.2017 1.43462 15.2488 1.48316C15.2958 1.53168 15.327 1.59337 15.3386 1.65991C15.3502 1.72661 15.3412 1.79555 15.3132 1.85718L15.1394 2.26148C14.8407 2.94491 14.8152 3.71739 15.0691 4.4187L15.2488 4.90991C15.2708 4.97363 15.2742 5.04256 15.2585 5.10816C15.2429 5.17356 15.2092 5.2332 15.1609 5.28003C15.1124 5.32697 15.0512 5.35926 14.9851 5.3728C14.9191 5.3863 14.8508 5.38027 14.7878 5.3562L14.2732 5.15015C13.5979 4.88118 12.8465 4.87415 12.1667 5.13159L11.782 5.27613C11.72 5.30062 11.6518 5.30577 11.5867 5.29175C11.5216 5.27772 11.4621 5.24479 11.4158 5.19702C11.3694 5.1492 11.3379 5.08868 11.3259 5.0232C11.314 4.95768 11.322 4.89 11.3484 4.82886L11.5046 4.448C11.7835 3.77667 11.801 3.02506 11.5535 2.34155L11.363 1.82105C11.3411 1.75754 11.3368 1.68917 11.3523 1.62378C11.3679 1.55816 11.4025 1.49787 11.4509 1.45093C11.4994 1.404 11.5606 1.3717 11.6267 1.35816C11.6927 1.34473 11.7611 1.35072 11.824 1.37476Z" fill="#5B6066"/>
</svg>
