<svg width="16" height="16" viewBox="0 0 16 16" fill="none" xmlns="http://www.w3.org/2000/svg">
<path d="M9.30793 14.4732C8.89162 14.5561 8.46172 14.6004 8.02222 14.6004C7.58257 14.6004 7.15183 14.5561 6.73539 14.4732L6.96976 13.2969C7.30946 13.3645 7.6617 13.3995 8.02222 13.3995C8.38255 13.3995 8.73402 13.3644 9.07356 13.2969L9.30793 14.4732ZM3.54789 10.9944C3.94029 11.5844 4.44491 12.0926 5.03115 12.4877L4.69632 12.9855L4.36039 13.4832C3.64388 13.0004 3.027 12.3799 2.54789 11.6596L3.54789 10.9944ZM12.9965 11.327L13.4954 11.6596C13.0164 12.3798 12.4004 13.0005 11.684 13.4832L11.3481 12.9855L11.0133 12.4877C11.5994 12.0926 12.1042 11.5843 12.4965 10.9944L12.9965 11.327ZM1.44409 7.99663C1.44409 7.55749 1.48731 7.12703 1.56909 6.71092L2.74655 6.94306C2.67974 7.28318 2.64498 7.63576 2.64498 7.99663C2.64502 8.35731 2.67977 8.70914 2.74655 9.04909L1.56909 9.28123C1.48735 8.86529 1.44413 8.43559 1.44409 7.99663ZM13.3994 7.99663C13.3994 7.63578 13.3647 7.28317 13.2979 6.94306L14.4753 6.71092C14.5571 7.12704 14.5992 7.55749 14.5992 7.99663C14.5992 8.43559 14.5571 8.86529 14.4753 9.28123L13.2979 9.04909C13.3647 8.70916 13.3994 8.35729 13.3994 7.99663ZM4.69632 3.00668L5.03115 3.50445C4.44491 3.89952 3.94029 4.40775 3.54789 4.99775L2.54789 4.33257C3.027 3.6122 3.64388 2.99178 4.36039 2.50891L4.69632 3.00668ZM11.684 2.50891C12.4004 2.99168 13.0164 3.6124 13.4954 4.33257L12.9965 4.66516L12.4965 4.99775C12.1042 4.40781 11.5994 3.8995 11.0133 3.50445L11.3481 3.00668L11.684 2.50891ZM8.02222 1.39172C8.46172 1.39173 8.89162 1.43607 9.30793 1.51896L9.07356 2.69529C8.73402 2.62771 8.38255 2.59263 8.02222 2.59262C7.6617 2.59262 7.30946 2.62765 6.96976 2.69529L6.73539 1.51896C7.15183 1.43602 7.58257 1.39172 8.02222 1.39172Z" fill="#AAAAAA"/>
</svg>
