<svg width="16" height="16" viewBox="0 0 16 16" fill="none" xmlns="http://www.w3.org/2000/svg">
<path d="M10.0373 4.18604H5.96289V7.55645H9.65133C9.75434 7.5566 9.85308 7.59762 9.92586 7.67051C9.99865 7.7434 10.0395 7.8422 10.0395 7.94521V11.6387H13.0172C13.0682 11.6387 13.1188 11.6287 13.1659 11.6091C13.213 11.5896 13.2559 11.5609 13.2919 11.5248C13.328 11.4887 13.3566 11.4459 13.376 11.3987C13.3955 11.3515 13.4055 11.301 13.4054 11.25V4.5748C13.4055 4.52377 13.3955 4.47323 13.376 4.42607C13.3566 4.3789 13.328 4.33604 13.2919 4.29994C13.2559 4.26383 13.213 4.23518 13.1659 4.21564C13.1188 4.19609 13.0682 4.18604 13.0172 4.18604H10.0373Z" fill="#0057FF"/>
<path d="M5.96061 15.0001H9.64905C9.75206 14.9999 9.8508 14.9589 9.92358 14.886C9.99637 14.8131 10.0373 14.7143 10.0373 14.6113V11.6297H6.34938C6.24661 11.6295 6.14807 11.5887 6.07524 11.5162C6.00241 11.4437 5.96121 11.3454 5.96061 11.2426V7.54736H2.98292C2.93187 7.54744 2.88133 7.55757 2.83419 7.57717C2.78706 7.59678 2.74424 7.62548 2.70819 7.66163C2.67215 7.69778 2.64357 7.74068 2.6241 7.78788C2.60463 7.83507 2.59465 7.88564 2.59473 7.93669V14.0664C2.59458 14.1889 2.61857 14.3102 2.66534 14.4235C2.7121 14.5367 2.78072 14.6396 2.86727 14.7263C2.95383 14.813 3.05662 14.8818 3.16977 14.9288C3.28292 14.9758 3.40422 15 3.52674 15.0001H5.96061Z" fill="#0057FF"/>
<path d="M2.97274 1H5.58317C5.63281 1 5.68196 1.00978 5.72782 1.02877C5.77369 1.04777 5.81536 1.07562 5.85046 1.11072C5.88556 1.14582 5.91341 1.18749 5.9324 1.23335C5.9514 1.27922 5.96118 1.32837 5.96118 1.37801V4.18593H2.97274C2.87248 4.18593 2.77633 4.14611 2.70544 4.07522C2.63455 4.00433 2.59473 3.90818 2.59473 3.80792V1.37801C2.59473 1.27776 2.63455 1.18161 2.70544 1.11072C2.77633 1.03983 2.87248 1 2.97274 1V1Z" fill="#00E6E4"/>
</svg>
