<svg width="16" height="16" viewBox="0 0 16 16" fill="none" xmlns="http://www.w3.org/2000/svg">
<path d="M9.78261 4.6626H6.21753V7.61171H9.44491C9.53505 7.61184 9.62144 7.64774 9.68513 7.71152C9.74882 7.7753 9.78459 7.86174 9.78459 7.95188V11.1837H12.3901C12.4347 11.1837 12.4789 11.1749 12.5202 11.1578C12.5614 11.1407 12.5989 11.1156 12.6304 11.0841C12.662 11.0525 12.687 11.015 12.704 10.9737C12.7211 10.9324 12.7298 10.8882 12.7297 10.8435V5.00277C12.7298 4.95812 12.7211 4.91389 12.704 4.87263C12.687 4.83136 12.662 4.79385 12.6304 4.76226C12.5989 4.73067 12.5614 4.7056 12.5202 4.6885C12.4789 4.6714 12.4347 4.6626 12.3901 4.6626H9.78261Z" fill="#5B6066"/>
<path d="M6.21566 14.1249H9.44304C9.53318 14.1247 9.61957 14.0889 9.68326 14.0251C9.74694 13.9613 9.78272 13.8748 9.78272 13.7847V11.1758H6.55583C6.4659 11.1756 6.37968 11.14 6.31596 11.0765C6.25223 11.0131 6.21618 10.927 6.21566 10.8371V7.60376H3.61018C3.56551 7.60382 3.52129 7.61269 3.48004 7.62984C3.4388 7.647 3.40133 7.67211 3.36979 7.70374C3.33825 7.73538 3.31325 7.77291 3.29621 7.81421C3.27918 7.8555 3.27044 7.89975 3.27051 7.94442V13.3079C3.27038 13.4151 3.29137 13.5213 3.33229 13.6203C3.37321 13.7194 3.43325 13.8095 3.50899 13.8854C3.58472 13.9612 3.67466 14.0214 3.77367 14.0625C3.87268 14.1036 3.97882 14.1248 4.08602 14.1249H6.21566Z" fill="#5B6066"/>
<path d="M3.60127 1.875H5.88539C5.92883 1.875 5.97184 1.88356 6.01197 1.90018C6.0521 1.9168 6.08856 1.94116 6.11928 1.97188C6.14999 2.00259 6.17435 2.03905 6.19097 2.07918C6.2076 2.11931 6.21615 2.16232 6.21615 2.20576V4.66269H3.60127C3.51354 4.66269 3.42941 4.62784 3.36739 4.56581C3.30536 4.50378 3.27051 4.41965 3.27051 4.33193V2.20576C3.27051 2.11804 3.30536 2.03391 3.36739 1.97188C3.42941 1.90985 3.51354 1.875 3.60127 1.875V1.875Z" fill="#5B6066"/>
</svg>
