<svg width="16" height="16" viewBox="0 0 16 16" fill="none" xmlns="http://www.w3.org/2000/svg">
<g clip-path="url(#clip0_127_34033)">
<path d="M15.2734 5.0184C15.3094 4.8728 15.2734 4.5456 14.9094 3.9272C14.5454 3.3088 14.1822 3.164 14.0366 3.1272L9.12777 0.2912C9.01897 0.1816 8.69177 0 8.00057 0C7.30937 0 6.98217 0.1816 6.87337 0.2912L1.96457 3.1272C1.78217 3.164 1.41897 3.3088 1.09177 3.9272C0.727766 4.5456 0.727766 4.8728 0.727766 5.0184V10.9816C0.691766 11.1272 0.727766 11.4544 1.09177 12.0728C1.45577 12.6912 1.81897 12.836 1.96457 12.8728L6.87337 15.7088C6.98217 15.8184 7.27337 16 8.00057 16C8.69177 16 9.01897 15.8184 9.12777 15.7088L14.0366 12.8728C14.219 12.836 14.5822 12.6912 14.9094 12.0728C15.2734 11.4544 15.2734 11.1272 15.2734 10.9816V5.0184ZM14.1462 10.9816C14.1432 11.1494 14.0984 11.3138 14.0158 11.4599C13.9333 11.606 13.8156 11.7293 13.6734 11.8184L8.47337 14.836C8.33185 14.9253 8.16792 14.9728 8.00057 14.9728C7.83321 14.9728 7.66928 14.9253 7.52777 14.836L2.32777 11.8184C2.18237 11.7328 2.06211 11.6103 1.9791 11.4634C1.8961 11.3165 1.85328 11.1503 1.85497 10.9816V5.0184C1.85795 4.8506 1.90275 4.68619 1.9853 4.54007C2.06786 4.39396 2.18557 4.27074 2.32777 4.1816L7.52777 1.164C7.67494 1.09187 7.83667 1.05438 8.00057 1.05438C8.16446 1.05438 8.32619 1.09187 8.47337 1.164L13.6734 4.1816C13.8188 4.26723 13.939 4.38966 14.022 4.53657C14.105 4.68348 14.1479 4.84967 14.1462 5.0184V10.9816ZM12.1094 5.164C12.0362 5.1402 11.9585 5.13431 11.8826 5.14684C11.8067 5.15937 11.735 5.18995 11.6734 5.236L8.14617 7.3088L4.61897 5.236C4.48693 5.15978 4.33168 5.13418 4.18217 5.164C4.03657 5.2 3.92777 5.3088 3.81897 5.4544C3.67337 5.7456 3.74617 6.1088 4.03657 6.2544L7.56457 8.3272V12.6544C7.56457 12.7272 7.60057 13.0184 7.96457 13.0184H8.29177C8.69177 13.0184 8.69177 12.7272 8.69177 12.6544V8.3272L12.219 6.2544C12.5094 6.1088 12.5822 5.7456 12.4366 5.4544C12.4006 5.3088 12.255 5.236 12.1094 5.164Z" fill="#5B6066"/>
</g>
<defs>
<clipPath id="clip0_127_34033">
<rect width="16" height="16" fill="white"/>
</clipPath>
</defs>
</svg>
