<svg width="40" height="40" viewBox="0 0 40 40" fill="none" xmlns="http://www.w3.org/2000/svg">
<g filter="url(#filter0_i_127_33967)">
<path d="M32.3195 18.7992C33.5657 4.69717 19.4462 3.83461 13.0412 7.79534C6.56353 11.8012 6.2335 19.5611 11.1968 23.8404C11.3235 23.9496 11.3265 24.1485 11.1948 24.2514C10.5695 24.7401 9.84712 25.1592 8.89176 25.2699C6.02383 25.6023 5.07675 27.2459 5.66813 29.1733C6.2597 31.1007 8.30123 32.1836 10.2287 31.5922C10.7002 31.4475 11.4821 30.9735 12.3461 30.3098C12.5177 30.178 12.776 30.2893 12.8166 30.5019C13.0662 31.8059 13.9512 32.9539 15.2697 33.4731C17.3243 34.282 19.6514 33.2573 20.4679 31.184C20.5471 30.9828 20.8711 31.0081 20.9479 31.2102C21.5021 32.6684 22.8708 33.674 24.4308 33.6127C26.3465 33.5374 27.8491 31.881 27.8758 29.8677C27.8761 29.8444 27.9056 29.835 27.9191 29.8539C28.9301 31.2687 30.9238 32.1237 32.9533 30.9887C34.9823 29.8536 35.2361 26.5528 33.1808 26.0942C32.0129 25.7461 31.3057 25.0396 30.7687 24.3162C30.7429 24.2814 30.7258 24.2402 30.7218 24.1971C30.6248 23.1414 31.974 22.7075 32.3195 18.7992Z" fill="#62CBFF"/>
</g>
<mask id="mask0_127_33967" style="mask-type:alpha" maskUnits="userSpaceOnUse" x="5" y="5" width="30" height="29">
<path d="M32.3195 18.7992C33.5657 4.69712 19.4462 3.83456 13.0412 7.79529C6.56353 11.8012 6.2335 19.561 11.1968 23.8404C11.3235 23.9496 11.3265 24.1484 11.1948 24.2514C10.5695 24.74 9.84712 25.1591 8.89176 25.2699C6.02383 25.6022 5.07675 27.2459 5.66813 29.1732C6.2597 31.1007 8.30123 32.1836 10.2287 31.5922C10.7002 31.4475 11.4821 30.9735 12.3461 30.3098C12.5177 30.1779 12.776 30.2893 12.8166 30.5018C13.0662 31.8058 13.9512 32.9539 15.2697 33.473C17.3243 34.2819 19.6514 33.2573 20.4679 31.184C20.5471 30.9828 20.8711 31.008 20.9479 31.2101C21.5021 32.6683 22.8708 33.674 24.4308 33.6127C26.3465 33.5374 27.8491 31.8809 27.8758 29.8677C27.8761 29.8443 27.9056 29.8349 27.9191 29.8539C28.9301 31.2687 30.9238 32.1236 32.9533 30.9887C34.9823 29.8535 35.2361 26.5527 33.1808 26.0941C32.0129 25.746 31.3057 25.0396 30.7687 24.3161C30.7429 24.2814 30.7258 24.2402 30.7218 24.197C30.6248 23.1413 31.974 22.7074 32.3195 18.7992Z" fill="#62CBFF"/>
</mask>
<g mask="url(#mask0_127_33967)">
<g filter="url(#filter1_f_127_33967)">
<ellipse cx="14.5702" cy="31.3278" rx="4.49147" ry="4.65415" transform="rotate(-81.7588 14.5702 31.3278)" fill="#0059FF"/>
</g>
<g filter="url(#filter2_f_127_33967)">
<ellipse cx="18.6004" cy="10.5243" rx="6.91796" ry="3.17917" transform="rotate(-29.1889 18.6004 10.5243)" fill="#44ABFF"/>
</g>
<g filter="url(#filter3_f_127_33967)">
<circle cx="4.75993" cy="25.9079" r="5.53947" fill="#DA7CFF"/>
</g>
<g filter="url(#filter4_f_127_33967)">
<ellipse cx="20.0292" cy="11.589" rx="5.82849" ry="3.17917" fill="#1DFF86"/>
</g>
<g filter="url(#filter5_f_127_33967)">
<ellipse cx="22.8715" cy="26.377" rx="4.43158" ry="4.19073" fill="#0051FF"/>
</g>
<g filter="url(#filter6_f_127_33967)">
<ellipse cx="6.36009" cy="30.1774" rx="5.9768" ry="5.23738" transform="rotate(-15.1793 6.36009 30.1774)" fill="#0051FF"/>
</g>
<g filter="url(#filter7_f_127_33967)">
<ellipse cx="9.06999" cy="31.9848" rx="5.5458" ry="1.65236" transform="rotate(175.164 9.06999 31.9848)" fill="white"/>
</g>
<g filter="url(#filter8_f_127_33967)">
<ellipse cx="24.1571" cy="30.6676" rx="3.8264" ry="4.72025" transform="rotate(-21.0868 24.1571 30.6676)" fill="#3691FF"/>
</g>
<g filter="url(#filter9_f_127_33967)">
<ellipse cx="31.8649" cy="27.744" rx="3.8264" ry="4.72025" transform="rotate(-21.0868 31.8649 27.744)" fill="#3691FF"/>
</g>
<g filter="url(#filter10_f_127_33967)">
<ellipse cx="23.1648" cy="17.6724" rx="7.96356" ry="7.74079" transform="rotate(146.287 23.1648 17.6724)" fill="#7BDDFF"/>
</g>
<g filter="url(#filter11_f_127_33967)">
<ellipse cx="32.8742" cy="21.1217" rx="6.89656" ry="3.65289" transform="rotate(146.287 32.8742 21.1217)" fill="#DDFAFF"/>
</g>
<g filter="url(#filter12_f_127_33967)">
<ellipse cx="26.3732" cy="13.5203" rx="4.49147" ry="4.65415" transform="rotate(-81.7588 26.3732 13.5203)" fill="#1DFF86"/>
</g>
<g filter="url(#filter13_f_127_33967)">
<ellipse cx="22.4468" cy="21.0911" rx="3.59806" ry="3.18942" transform="rotate(90.4218 22.4468 21.0911)" fill="#1DFF86"/>
</g>
<g filter="url(#filter14_f_127_33967)">
<ellipse cx="21.1601" cy="26.3579" rx="3.39561" ry="6.6907" transform="rotate(-81.7588 21.1601 26.3579)" fill="#7BD3FF"/>
</g>
</g>
<g filter="url(#filter15_iii_127_33967)">
<path d="M32.3195 18.7992C33.5657 4.69717 19.4462 3.83461 13.0412 7.79534C6.56353 11.8012 6.2335 19.5611 11.1968 23.8404C11.3235 23.9496 11.3265 24.1485 11.1948 24.2514C10.5695 24.7401 9.84713 25.1592 8.89176 25.2699C6.02365 25.6023 5.07653 27.2467 5.66813 29.1742C6.2599 31.1014 8.30139 32.1836 10.2287 31.5922C10.7002 31.4475 11.4821 30.9735 12.3461 30.3098C12.5177 30.178 12.776 30.2893 12.8166 30.5019C13.0662 31.8059 13.9512 32.9539 15.2697 33.4731C17.3243 34.282 19.6514 33.2573 20.4679 31.184C20.5471 30.9828 20.8711 31.0081 20.9479 31.2102C21.5021 32.6684 22.8708 33.674 24.4308 33.6127C26.3466 33.5374 27.8492 31.881 27.8758 29.8677C27.8761 29.8444 27.9056 29.835 27.9191 29.8539C28.9301 31.2687 30.9238 32.1237 32.9533 30.9887C34.9823 29.8536 35.2361 26.5528 33.1808 26.0942C32.0129 25.7461 31.3057 25.0396 30.7687 24.3162C30.7429 24.2814 30.7258 24.2402 30.7218 24.1971C30.6248 23.1414 31.974 22.7075 32.3195 18.7992Z" fill="#62CBFF" fill-opacity="0.01"/>
</g>
<path d="M24.9504 16.6724C24.9504 18.7772 23.3 20.4835 21.2641 20.4835C19.2283 20.4835 17.5779 18.7772 17.5779 16.6724C17.5779 14.5677 19.2283 12.8614 21.2641 12.8614C23.3 12.8614 24.9504 14.5677 24.9504 16.6724Z" fill="white"/>
<path d="M30.6572 15.6376C30.6572 17.3415 29.4748 18.7227 28.0162 18.7227C26.5576 18.7227 25.3752 17.3415 25.3752 15.6376C25.3752 13.9337 26.5576 12.5525 28.0162 12.5525C29.4748 12.5525 30.6572 13.9337 30.6572 15.6376Z" fill="white"/>
<ellipse cx="20.2848" cy="17.5465" rx="2.2924" ry="2.54068" fill="black"/>
<ellipse cx="27.4246" cy="16.2891" rx="1.85576" ry="2.05675" fill="black"/>
<path d="M24.2792 23.0334C23.422 22.9809 22.7802 22.073 22.8121 21.5526C22.8439 21.0321 23.5375 21.0963 24.3947 21.1488C25.2519 21.2013 25.8454 21.2262 25.9162 21.7428C25.9931 22.3038 25.1364 23.086 24.2792 23.0334Z" fill="black"/>
<defs>
<filter id="filter0_i_127_33967" x="5.50024" y="5.75052" width="29.1038" height="27.9993" filterUnits="userSpaceOnUse" color-interpolation-filters="sRGB">
<feFlood flood-opacity="0" result="BackgroundImageFix"/>
<feBlend mode="normal" in="SourceGraphic" in2="BackgroundImageFix" result="shape"/>
<feColorMatrix in="SourceAlpha" type="matrix" values="0 0 0 0 0 0 0 0 0 0 0 0 0 0 0 0 0 0 127 0" result="hardAlpha"/>
<feOffset/>
<feGaussianBlur stdDeviation="4.34558"/>
<feComposite in2="hardAlpha" operator="arithmetic" k2="-1" k3="1"/>
<feColorMatrix type="matrix" values="0 0 0 0 1 0 0 0 0 1 0 0 0 0 1 0 0 0 1 0"/>
<feBlend mode="normal" in2="shape" result="effect1_innerShadow_127_33967"/>
</filter>
<filter id="filter1_f_127_33967" x="0.749129" y="17.6628" width="27.6421" height="27.3301" filterUnits="userSpaceOnUse" color-interpolation-filters="sRGB">
<feFlood flood-opacity="0" result="BackgroundImageFix"/>
<feBlend mode="normal" in="SourceGraphic" in2="BackgroundImageFix" result="shape"/>
<feGaussianBlur stdDeviation="4.58479" result="effect1_foregroundBlur_127_33967"/>
</filter>
<filter id="filter2_f_127_33967" x="4.31025" y="-1.89783" width="28.5804" height="24.8443" filterUnits="userSpaceOnUse" color-interpolation-filters="sRGB">
<feFlood flood-opacity="0" result="BackgroundImageFix"/>
<feBlend mode="normal" in="SourceGraphic" in2="BackgroundImageFix" result="shape"/>
<feGaussianBlur stdDeviation="4.02664" result="effect1_foregroundBlur_127_33967"/>
</filter>
<filter id="filter3_f_127_33967" x="-8.83282" y="12.3151" width="27.1854" height="27.1855" filterUnits="userSpaceOnUse" color-interpolation-filters="sRGB">
<feFlood flood-opacity="0" result="BackgroundImageFix"/>
<feBlend mode="normal" in="SourceGraphic" in2="BackgroundImageFix" result="shape"/>
<feGaussianBlur stdDeviation="4.02664" result="effect1_foregroundBlur_127_33967"/>
</filter>
<filter id="filter4_f_127_33967" x="6.14741" y="0.356535" width="27.7635" height="22.4649" filterUnits="userSpaceOnUse" color-interpolation-filters="sRGB">
<feFlood flood-opacity="0" result="BackgroundImageFix"/>
<feBlend mode="normal" in="SourceGraphic" in2="BackgroundImageFix" result="shape"/>
<feGaussianBlur stdDeviation="4.02664" result="effect1_foregroundBlur_127_33967"/>
</filter>
<filter id="filter5_f_127_33967" x="10.3867" y="14.133" width="24.9696" height="24.488" filterUnits="userSpaceOnUse" color-interpolation-filters="sRGB">
<feFlood flood-opacity="0" result="BackgroundImageFix"/>
<feBlend mode="normal" in="SourceGraphic" in2="BackgroundImageFix" result="shape"/>
<feGaussianBlur stdDeviation="4.02664" result="effect1_foregroundBlur_127_33967"/>
</filter>
<filter id="filter6_f_127_33967" x="-6.18835" y="18.2666" width="25.0969" height="23.8216" filterUnits="userSpaceOnUse" color-interpolation-filters="sRGB">
<feFlood flood-opacity="0" result="BackgroundImageFix"/>
<feBlend mode="normal" in="SourceGraphic" in2="BackgroundImageFix" result="shape"/>
<feGaussianBlur stdDeviation="3.30902" result="effect1_foregroundBlur_127_33967"/>
</filter>
<filter id="filter7_f_127_33967" x="-1.69372" y="25.0368" width="21.5276" height="13.8959" filterUnits="userSpaceOnUse" color-interpolation-filters="sRGB">
<feFlood flood-opacity="0" result="BackgroundImageFix"/>
<feBlend mode="normal" in="SourceGraphic" in2="BackgroundImageFix" result="shape"/>
<feGaussianBlur stdDeviation="2.61798" result="effect1_foregroundBlur_127_33967"/>
</filter>
<filter id="filter8_f_127_33967" x="16.083" y="21.9323" width="16.1483" height="17.4704" filterUnits="userSpaceOnUse" color-interpolation-filters="sRGB">
<feFlood flood-opacity="0" result="BackgroundImageFix"/>
<feBlend mode="normal" in="SourceGraphic" in2="BackgroundImageFix" result="shape"/>
<feGaussianBlur stdDeviation="2.05983" result="effect1_foregroundBlur_127_33967"/>
</filter>
<filter id="filter9_f_127_33967" x="23.7907" y="19.0088" width="16.1483" height="17.4704" filterUnits="userSpaceOnUse" color-interpolation-filters="sRGB">
<feFlood flood-opacity="0" result="BackgroundImageFix"/>
<feBlend mode="normal" in="SourceGraphic" in2="BackgroundImageFix" result="shape"/>
<feGaussianBlur stdDeviation="2.05983" result="effect1_foregroundBlur_127_33967"/>
</filter>
<filter id="filter10_f_127_33967" x="7.21503" y="1.80828" width="31.8995" height="31.7282" filterUnits="userSpaceOnUse" color-interpolation-filters="sRGB">
<feFlood flood-opacity="0" result="BackgroundImageFix"/>
<feBlend mode="normal" in="SourceGraphic" in2="BackgroundImageFix" result="shape"/>
<feGaussianBlur stdDeviation="4.02664" result="effect1_foregroundBlur_127_33967"/>
</filter>
<filter id="filter11_f_127_33967" x="18.7348" y="8.18105" width="28.2789" height="25.8814" filterUnits="userSpaceOnUse" color-interpolation-filters="sRGB">
<feFlood flood-opacity="0" result="BackgroundImageFix"/>
<feBlend mode="normal" in="SourceGraphic" in2="BackgroundImageFix" result="shape"/>
<feGaussianBlur stdDeviation="4.02664" result="effect1_foregroundBlur_127_33967"/>
</filter>
<filter id="filter12_f_127_33967" x="13.6684" y="0.971556" width="25.4095" height="25.0975" filterUnits="userSpaceOnUse" color-interpolation-filters="sRGB">
<feFlood flood-opacity="0" result="BackgroundImageFix"/>
<feBlend mode="normal" in="SourceGraphic" in2="BackgroundImageFix" result="shape"/>
<feGaussianBlur stdDeviation="4.02664" result="effect1_foregroundBlur_127_33967"/>
</filter>
<filter id="filter13_f_127_33967" x="11.8154" y="10.0511" width="21.2628" height="22.08" filterUnits="userSpaceOnUse" color-interpolation-filters="sRGB">
<feFlood flood-opacity="0" result="BackgroundImageFix"/>
<feBlend mode="normal" in="SourceGraphic" in2="BackgroundImageFix" result="shape"/>
<feGaussianBlur stdDeviation="3.72099" result="effect1_foregroundBlur_127_33967"/>
</filter>
<filter id="filter14_f_127_33967" x="6.46699" y="14.809" width="29.3861" height="23.0978" filterUnits="userSpaceOnUse" color-interpolation-filters="sRGB">
<feFlood flood-opacity="0" result="BackgroundImageFix"/>
<feBlend mode="normal" in="SourceGraphic" in2="BackgroundImageFix" result="shape"/>
<feGaussianBlur stdDeviation="4.02664" result="effect1_foregroundBlur_127_33967"/>
</filter>
<filter id="filter15_iii_127_33967" x="5.50024" y="5.75052" width="29.1038" height="29.0624" filterUnits="userSpaceOnUse" color-interpolation-filters="sRGB">
<feFlood flood-opacity="0" result="BackgroundImageFix"/>
<feBlend mode="normal" in="SourceGraphic" in2="BackgroundImageFix" result="shape"/>
<feColorMatrix in="SourceAlpha" type="matrix" values="0 0 0 0 0 0 0 0 0 0 0 0 0 0 0 0 0 0 127 0" result="hardAlpha"/>
<feOffset/>
<feGaussianBlur stdDeviation="2.9635"/>
<feComposite in2="hardAlpha" operator="arithmetic" k2="-1" k3="1"/>
<feColorMatrix type="matrix" values="0 0 0 0 1 0 0 0 0 1 0 0 0 0 1 0 0 0 1 0"/>
<feBlend mode="normal" in2="shape" result="effect1_innerShadow_127_33967"/>
<feColorMatrix in="SourceAlpha" type="matrix" values="0 0 0 0 0 0 0 0 0 0 0 0 0 0 0 0 0 0 127 0" result="hardAlpha"/>
<feOffset/>
<feGaussianBlur stdDeviation="1.97593"/>
<feComposite in2="hardAlpha" operator="arithmetic" k2="-1" k3="1"/>
<feColorMatrix type="matrix" values="0 0 0 0 0.228985 0 0 0 0 0.742995 0 0 0 0 1 0 0 0 1 0"/>
<feBlend mode="normal" in2="effect1_innerShadow_127_33967" result="effect2_innerShadow_127_33967"/>
<feColorMatrix in="SourceAlpha" type="matrix" values="0 0 0 0 0 0 0 0 0 0 0 0 0 0 0 0 0 0 127 0" result="hardAlpha"/>
<feOffset dy="1.06314"/>
<feGaussianBlur stdDeviation="1.7276"/>
<feComposite in2="hardAlpha" operator="arithmetic" k2="-1" k3="1"/>
<feColorMatrix type="matrix" values="0 0 0 0 1 0 0 0 0 1 0 0 0 0 1 0 0 0 0.25 0"/>
<feBlend mode="normal" in2="effect2_innerShadow_127_33967" result="effect3_innerShadow_127_33967"/>
</filter>
</defs>
</svg>
