<svg width="14" height="14" viewBox="0 0 14 14" fill="none" xmlns="http://www.w3.org/2000/svg">
<path fill-rule="evenodd" clip-rule="evenodd" d="M7 2.1875C7.40271 2.1875 7.72917 2.51396 7.72917 2.91667V6.27083H11.0833C11.486 6.27083 11.8125 6.59729 11.8125 7C11.8125 7.40271 11.486 7.72917 11.0833 7.72917H7.72917V11.0833C7.72917 11.486 7.40271 11.8125 7 11.8125C6.59729 11.8125 6.27083 11.486 6.27083 11.0833V7.72917H2.91667C2.51396 7.72917 2.1875 7.40271 2.1875 7C2.1875 6.59729 2.51396 6.27083 2.91667 6.27083H6.27083V2.91667C6.27083 2.51396 6.59729 2.1875 7 2.1875Z" fill="white"/>
</svg>
