<svg width="16" height="16" viewBox="0 0 16 16" fill="none" xmlns="http://www.w3.org/2000/svg">
<path d="M12 2C13.4727 2 14.667 3.19423 14.667 4.66699V11.333C14.667 12.8057 13.4727 14 12 14H4C2.52731 13.9999 1.33398 12.8057 1.33398 11.333V4.66699C1.33398 3.19429 2.52731 2.00009 4 2H12ZM8.39258 4.93262C8.24545 4.578 7.75557 4.57805 7.6084 4.93262L7.39648 5.44238C7.03654 6.31111 6.36557 7.00543 5.52148 7.38086L4.92383 7.64648C4.58175 7.79882 4.58167 8.29702 4.92383 8.44922L5.55664 8.73047C6.37969 9.09654 7.04005 9.76605 7.40625 10.6064L7.61133 11.0771C7.76173 11.4222 8.23925 11.4222 8.38965 11.0771L8.59473 10.6064C8.96088 9.76615 9.6205 9.09657 10.4434 8.73047L11.0771 8.44922C11.4193 8.29702 11.4193 7.79882 11.0771 7.64648L10.4795 7.38086C9.63525 7.00543 8.96347 6.31117 8.60352 5.44238L8.39258 4.93262Z" fill="#31353A"/>
</svg>
