<svg width="14" height="14" viewBox="0 0 14 14" fill="none" xmlns="http://www.w3.org/2000/svg">
<g clip-path="url(#clip0_127_34878)">
<path d="M9.33333 12.8333L8.75 10.5" stroke="#5B6066" stroke-width="1.05" stroke-linecap="round" stroke-linejoin="round"/>
<path d="M11.0835 8.16669C11.2382 8.16669 11.3866 8.10523 11.496 7.99583C11.6054 7.88644 11.6668 7.73806 11.6668 7.58335V7.00002C11.6668 6.6906 11.5439 6.39385 11.3251 6.17506C11.1063 5.95627 10.8096 5.83335 10.5002 5.83335H8.75016C8.59545 5.83335 8.44708 5.7719 8.33768 5.6625C8.22829 5.5531 8.16683 5.40473 8.16683 5.25002V2.33335C8.16683 2.02393 8.04391 1.72719 7.82512 1.5084C7.60633 1.2896 7.30958 1.16669 7.00016 1.16669C6.69074 1.16669 6.394 1.2896 6.1752 1.5084C5.95641 1.72719 5.8335 2.02393 5.8335 2.33335V5.25002C5.8335 5.40473 5.77204 5.5531 5.66264 5.6625C5.55325 5.7719 5.40487 5.83335 5.25016 5.83335H3.50016C3.19074 5.83335 2.894 5.95627 2.6752 6.17506C2.45641 6.39385 2.3335 6.6906 2.3335 7.00002V7.58335C2.3335 7.73806 2.39495 7.88644 2.50435 7.99583C2.61375 8.10523 2.76212 8.16669 2.91683 8.16669" stroke="#5B6066" stroke-width="1.05" stroke-linecap="round" stroke-linejoin="round"/>
<path d="M11.0831 8.16669H2.91648L1.76557 12.1141C1.74502 12.1999 1.74418 12.2892 1.76312 12.3753C1.78207 12.4614 1.82029 12.5422 1.87492 12.6114C1.92955 12.6806 1.99917 12.7366 2.07854 12.775C2.15791 12.8134 2.24496 12.8334 2.33315 12.8334H11.6665C11.7547 12.8334 11.8417 12.8134 11.9211 12.775C12.0005 12.7366 12.0701 12.6806 12.1247 12.6114C12.1793 12.5422 12.2176 12.4614 12.2365 12.3753C12.2555 12.2892 12.2546 12.1999 12.2341 12.1141L11.0831 8.16669Z" stroke="#5B6066" stroke-width="1.05" stroke-linecap="round" stroke-linejoin="round"/>
<path d="M4.6665 12.8333L5.24984 10.5" stroke="#5B6066" stroke-width="1.05" stroke-linecap="round" stroke-linejoin="round"/>
</g>
<defs>
<clipPath id="clip0_127_34878">
<rect width="14" height="14" fill="white"/>
</clipPath>
</defs>
</svg>
