<svg width="16" height="16" viewBox="0 0 16 16" fill="none" xmlns="http://www.w3.org/2000/svg">
<g clip-path="url(#clip0_127_34870)">
<path d="M10.0002 1.33331H6.00016C5.63197 1.33331 5.3335 1.63179 5.3335 1.99998V3.33331C5.3335 3.7015 5.63197 3.99998 6.00016 3.99998H10.0002C10.3684 3.99998 10.6668 3.7015 10.6668 3.33331V1.99998C10.6668 1.63179 10.3684 1.33331 10.0002 1.33331Z" stroke="#5B6066" stroke-width="1.2" stroke-linecap="round" stroke-linejoin="round"/>
<path d="M10.6667 2.66669H12.0001C12.3537 2.66669 12.6928 2.80716 12.9429 3.05721C13.1929 3.30726 13.3334 3.6464 13.3334 4.00002V13.3334C13.3334 13.687 13.1929 14.0261 12.9429 14.2762C12.6928 14.5262 12.3537 14.6667 12.0001 14.6667H4.00008C3.64646 14.6667 3.30732 14.5262 3.05727 14.2762C2.80722 14.0261 2.66675 13.687 2.66675 13.3334V4.00002C2.66675 3.6464 2.80722 3.30726 3.05727 3.05721C3.30732 2.80716 3.64646 2.66669 4.00008 2.66669H5.33341" stroke="#5B6066" stroke-width="1.2" stroke-linecap="round" stroke-linejoin="round"/>
<path d="M8.00024 7.33331H10.6669" stroke="#5B6066" stroke-width="1.2" stroke-linecap="round" stroke-linejoin="round"/>
<path d="M8.00024 10.6667H10.6669" stroke="#5B6066" stroke-width="1.2" stroke-linecap="round" stroke-linejoin="round"/>
<path d="M5.3335 7.33331H5.34016" stroke="#5B6066" stroke-width="1.2" stroke-linecap="round" stroke-linejoin="round"/>
<path d="M5.3335 10.6667H5.34016" stroke="#5B6066" stroke-width="1.2" stroke-linecap="round" stroke-linejoin="round"/>
</g>
<defs>
<clipPath id="clip0_127_34870">
<rect width="16" height="16" fill="white"/>
</clipPath>
</defs>
</svg>
