<svg width="18" height="18" viewBox="0 0 18 18" fill="none" xmlns="http://www.w3.org/2000/svg">
<path d="M15.0409 9.07794C14.9553 9.02974 14.8577 9.00732 14.7597 9.01338C14.6617 9.01945 14.5675 9.05374 14.4885 9.11212C13.0647 10.1644 11.1516 10.1645 9.72792 9.11212C8.86765 8.47629 8.30663 7.54357 8.14787 6.48579C7.98927 5.42786 8.25214 4.37166 8.88781 3.51139C8.94612 3.43241 8.98034 3.33825 8.98636 3.24026C8.99238 3.14227 8.96993 3.04463 8.92172 2.95911C8.87352 2.87358 8.80161 2.80382 8.71467 2.75823C8.62772 2.71264 8.52945 2.69316 8.43169 2.70215C5.4061 2.98171 3.00705 5.38061 2.72733 8.40652C2.57219 10.0855 3.08013 11.7241 4.15743 13.021C5.23489 14.3178 6.75289 15.1175 8.43169 15.2726C8.62982 15.291 8.82733 15.3 9.02389 15.3C10.4924 15.3 11.9024 14.7929 13.0461 13.8425C14.343 12.765 15.1426 11.247 15.2978 9.56824C15.3069 9.47046 15.2874 9.37214 15.2419 9.28514C15.1963 9.19814 15.1266 9.12618 15.041 9.07794H15.0409ZM12.3957 13.0596C11.3081 13.9631 9.93361 14.3889 8.5254 14.2589C7.11734 14.1288 5.84411 13.4582 4.94053 12.3705C4.03679 11.2828 3.61075 9.90829 3.741 8.50023C3.94244 6.31979 5.45618 4.52727 7.48794 3.91695C7.12349 4.76541 7.00079 5.70065 7.14113 6.63668C7.34005 7.96347 8.04376 9.13322 9.12248 9.93065C9.98567 10.5717 11.0329 10.9167 12.1081 10.9142C12.7874 10.9155 13.4598 10.7782 14.0842 10.5107C13.7889 11.5014 13.2088 12.3839 12.3955 13.0594L12.3957 13.0596Z" fill="#31353A"/>
</svg>
