<svg width="28" height="28" viewBox="0 0 28 28" fill="none" xmlns="http://www.w3.org/2000/svg">
<path d="M14 0C21.732 0 28 6.26801 28 14C28 21.732 21.732 28 14 28C6.26801 28 0 21.732 0 14C0 6.26801 6.26801 0 14 0ZM14.2285 8.7793C14.0822 8.71887 13.9169 8.71807 13.7705 8.77832C13.7479 8.78764 13.7272 8.80059 13.7061 8.8125C13.6939 8.81933 13.6807 8.8243 13.6689 8.83203L13.6631 8.83594C13.6314 8.85739 13.6022 8.88221 13.5752 8.90918L8.90918 13.5752C8.67487 13.8095 8.67487 14.1895 8.90918 14.4238C9.14346 14.6578 9.5226 14.6579 9.75684 14.4238L13.3994 10.7803V18.666C13.3994 18.9974 13.6677 19.2666 13.999 19.2666C14.3303 19.2665 14.5986 18.9973 14.5986 18.666V10.7803L18.2422 14.4238C18.4765 14.658 18.8565 14.6581 19.0908 14.4238C19.3248 14.1895 19.3249 13.8094 19.0908 13.5752L14.4238 8.90918C14.3769 8.86227 14.3229 8.82695 14.2666 8.79883C14.2539 8.79245 14.2417 8.78478 14.2285 8.7793Z" fill="#62CBFF"/>
</svg>
