<svg width="28" height="28" viewBox="0 0 28 28" fill="none" xmlns="http://www.w3.org/2000/svg">
<path d="M23.625 12.25V7C23.625 5.067 22.058 3.5 20.125 3.5H7.875C5.942 3.5 4.375 5.067 4.375 7V21C4.375 22.933 5.942 24.5 7.875 24.5H16.9632" stroke="#31353A" stroke-width="1.05" stroke-linecap="round" stroke-linejoin="round"/>
<path d="M8.75 8.75H19.25" stroke="#31353A" stroke-width="1.05" stroke-linecap="round" stroke-linejoin="round"/>
<path d="M8.75 14H14" stroke="#31353A" stroke-width="1.05" stroke-linecap="round" stroke-linejoin="round"/>
<path d="M8.75 19.25H11.375" stroke="#31353A" stroke-width="1.05" stroke-linecap="round" stroke-linejoin="round"/>
<path d="M25.7823 18.8669C26.5441 19.1488 26.5441 20.2262 25.7823 20.5081L24.7193 20.9015C23.7613 21.256 23.006 22.0113 22.6515 22.9693L22.2581 24.0323C21.9762 24.7941 20.8988 24.7941 20.6169 24.0323L20.2235 22.9693C19.869 22.0113 19.1137 21.256 18.1557 20.9015L17.0927 20.5081C16.3309 20.2262 16.3309 19.1488 17.0927 18.8669L18.1557 18.4735C19.1137 18.119 19.869 17.3637 20.2235 16.4057L20.6169 15.3427C20.8988 14.5809 21.9762 14.5809 22.2581 15.3427L22.6515 16.4057C23.006 17.3637 23.7613 18.119 24.7193 18.4735L25.7823 18.8669Z" fill="#31353A"/>
</svg>
