<svg width="80" height="80" viewBox="0 0 80 80" fill="none" xmlns="http://www.w3.org/2000/svg">
<g filter="url(#filter0_i_0_41)">
<path d="M64.6394 37.5985C67.1319 9.39434 38.8927 7.66922 26.0828 15.5907C13.1275 23.6025 12.4674 39.1221 22.3941 47.6808C22.6474 47.8992 22.6535 48.2969 22.3899 48.5029C21.1395 49.4801 19.6946 50.3184 17.7839 50.5399C12.0481 51.2045 10.1539 54.4918 11.3367 58.3465C12.5198 62.2014 16.6029 64.3673 20.4578 63.1844C21.4008 62.895 22.9647 61.947 24.6926 60.6196C25.0358 60.356 25.5524 60.5787 25.6337 61.0037C26.1329 63.6117 27.9029 65.9078 30.5398 66.9461C34.6489 68.5639 39.3032 66.5147 40.9363 62.368C41.0947 61.9657 41.7426 62.0161 41.8963 62.4203C43.0047 65.3368 45.742 67.348 48.8621 67.2254C52.6935 67.0748 55.6987 63.7619 55.7521 59.7354C55.7527 59.6888 55.8115 59.6699 55.8386 59.7079C57.8605 62.5375 61.848 64.2474 65.907 61.9774C69.9651 59.7071 70.4727 53.1055 66.3621 52.1883C64.0262 51.4921 62.6119 50.0792 61.5378 48.6323C61.4862 48.5628 61.4519 48.4804 61.444 48.3942C61.25 46.2827 63.9485 45.415 64.6394 37.5985Z" fill="#62CBFF"/>
</g>
<mask id="mask0_0_41" style="mask-type:alpha" maskUnits="userSpaceOnUse" x="11" y="11" width="59" height="57">
<path d="M64.6393 37.5984C67.1318 9.39425 38.8926 7.66912 26.0826 15.5906C13.1273 23.6024 12.4673 39.122 22.3939 47.6807C22.6473 47.8992 22.6533 48.2968 22.3898 48.5028C21.1394 49.48 19.6945 50.3183 17.7838 50.5398C12.0479 51.2044 10.1538 54.4917 11.3365 58.3464C12.5197 62.2013 16.6027 64.3672 20.4576 63.1843C21.4006 62.8949 22.9645 61.9469 24.6925 60.6195C25.0357 60.3559 25.5522 60.5786 25.6336 61.0036C26.1327 63.6117 27.9028 65.9077 30.5397 66.9461C34.6488 68.5639 39.3031 66.5146 40.9361 62.3679C41.0946 61.9656 41.7425 62.016 41.8961 62.4202C43.0046 65.3367 45.7419 67.3479 48.8619 67.2253C52.6933 67.0747 55.6986 63.7618 55.7519 59.7353C55.7526 59.6887 55.8114 59.6698 55.8385 59.7078C57.8604 62.5374 61.8479 64.2473 65.9069 61.9773C69.965 59.707 70.4726 53.1054 66.3619 52.1882C64.026 51.492 62.6117 50.0792 61.5377 48.6322C61.4861 48.5627 61.4518 48.4803 61.4439 48.3941C61.2499 46.2826 63.9484 45.4149 64.6393 37.5984Z" fill="#62CBFF"/>
</mask>
<g mask="url(#mask0_0_41)">
<g filter="url(#filter1_f_0_41)">
<ellipse cx="29.1409" cy="62.6557" rx="8.98295" ry="9.3083" transform="rotate(-81.7588 29.1409 62.6557)" fill="#0059FF"/>
</g>
<g filter="url(#filter2_f_0_41)">
<ellipse cx="37.2012" cy="21.0486" rx="13.8359" ry="6.35835" transform="rotate(-29.1889 37.2012 21.0486)" fill="#44ABFF"/>
</g>
<g filter="url(#filter3_f_0_41)">
<circle cx="9.52031" cy="51.8158" r="11.0789" fill="#DA7CFF"/>
</g>
<g filter="url(#filter4_f_0_41)">
<ellipse cx="40.0585" cy="23.178" rx="11.657" ry="6.35835" fill="#1DFF86"/>
</g>
<g filter="url(#filter5_f_0_41)">
<ellipse cx="45.7434" cy="52.7539" rx="8.86315" ry="8.38146" fill="#0051FF"/>
</g>
<g filter="url(#filter6_f_0_41)">
<ellipse cx="12.7206" cy="60.3548" rx="11.9536" ry="10.4748" transform="rotate(-15.1793 12.7206 60.3548)" fill="#0051FF"/>
</g>
<g filter="url(#filter7_f_0_41)">
<ellipse cx="18.1403" cy="63.9695" rx="11.0916" ry="3.30472" transform="rotate(175.164 18.1403 63.9695)" fill="white"/>
</g>
<g filter="url(#filter8_f_0_41)">
<ellipse cx="48.3144" cy="61.3351" rx="7.6528" ry="9.44051" transform="rotate(-21.0868 48.3144 61.3351)" fill="#3691FF"/>
</g>
<g filter="url(#filter9_f_0_41)">
<ellipse cx="63.7301" cy="55.488" rx="7.6528" ry="9.44051" transform="rotate(-21.0868 63.7301 55.488)" fill="#3691FF"/>
</g>
<g filter="url(#filter10_f_0_41)">
<ellipse cx="46.33" cy="35.3448" rx="15.9271" ry="15.4816" transform="rotate(146.287 46.33 35.3448)" fill="#7BDDFF"/>
</g>
<g filter="url(#filter11_f_0_41)">
<ellipse cx="65.7489" cy="42.2435" rx="13.7931" ry="7.30577" transform="rotate(146.287 65.7489 42.2435)" fill="#DDFAFF"/>
</g>
<g filter="url(#filter12_f_0_41)">
<ellipse cx="52.7468" cy="27.0406" rx="8.98295" ry="9.3083" transform="rotate(-81.7588 52.7468 27.0406)" fill="#1DFF86"/>
</g>
<g filter="url(#filter13_f_0_41)">
<ellipse cx="44.8937" cy="42.1822" rx="7.19612" ry="6.37883" transform="rotate(90.4218 44.8937 42.1822)" fill="#1DFF86"/>
</g>
<g filter="url(#filter14_f_0_41)">
<ellipse cx="42.3204" cy="52.7157" rx="6.79122" ry="13.3814" transform="rotate(-81.7588 42.3204 52.7157)" fill="#7BD3FF"/>
</g>
</g>
<g filter="url(#filter15_iii_0_41)">
<path d="M64.6394 37.5985C67.1319 9.39434 38.8927 7.66922 26.0828 15.5907C13.1275 23.6025 12.4674 39.1221 22.3941 47.6808C22.6474 47.8992 22.6535 48.2969 22.3899 48.5029C21.1395 49.4801 19.6947 50.3184 17.7839 50.5399C12.0477 51.2046 10.1535 54.4935 11.3367 58.3485C12.5202 62.2028 16.6032 64.3672 20.4578 63.1844C21.4008 62.895 22.9646 61.9471 24.6926 60.6196C25.0358 60.356 25.5524 60.5787 25.6337 61.0037C26.1329 63.6117 27.9029 65.9078 30.5398 66.9461C34.6489 68.5639 39.3032 66.5147 40.9363 62.368C41.0947 61.9657 41.7426 62.0161 41.8962 62.4203C43.0046 65.3368 45.7419 67.348 48.8621 67.2254C52.6935 67.0748 55.6988 63.762 55.7521 59.7354C55.7527 59.6888 55.8115 59.6699 55.8386 59.7079C57.8605 62.5375 61.848 64.2474 65.907 61.9774C69.9651 59.7071 70.4727 53.1055 66.3621 52.1883C64.0262 51.4921 62.6119 50.0792 61.5378 48.6323C61.4862 48.5628 61.4519 48.4804 61.444 48.3942C61.25 46.2827 63.9485 45.415 64.6394 37.5985Z" fill="#62CBFF" fill-opacity="0.01"/>
</g>
<path d="M49.9003 33.3449C49.9003 37.5544 46.5995 40.9669 42.5278 40.9669C38.4561 40.9669 35.1553 37.5544 35.1553 33.3449C35.1553 29.1354 38.4561 25.7229 42.5278 25.7229C46.5995 25.7229 49.9003 29.1354 49.9003 33.3449Z" fill="white"/>
<path d="M61.314 31.2752C61.314 34.6829 58.9492 37.4454 56.0321 37.4454C53.1149 37.4454 50.7501 34.6829 50.7501 31.2752C50.7501 27.8675 53.1149 25.105 56.0321 25.105C58.9492 25.105 61.314 27.8675 61.314 31.2752Z" fill="white"/>
<ellipse cx="40.5692" cy="35.093" rx="4.58481" ry="5.08136" fill="black"/>
<ellipse cx="54.8489" cy="32.5783" rx="3.71152" ry="4.11349" fill="black"/>
<path d="M48.5582 46.0669C46.8439 45.9619 45.5601 44.146 45.6239 43.1052C45.6877 42.0643 47.0748 42.1925 48.7892 42.2976C50.5035 42.4026 51.6906 42.4524 51.8322 43.4855C51.9859 44.6077 50.2726 46.1719 48.5582 46.0669Z" fill="black"/>
<defs>
<filter id="filter0_i_0_41" x="11.0009" y="11.501" width="58.2075" height="55.9986" filterUnits="userSpaceOnUse" color-interpolation-filters="sRGB">
<feFlood flood-opacity="0" result="BackgroundImageFix"/>
<feBlend mode="normal" in="SourceGraphic" in2="BackgroundImageFix" result="shape"/>
<feColorMatrix in="SourceAlpha" type="matrix" values="0 0 0 0 0 0 0 0 0 0 0 0 0 0 0 0 0 0 127 0" result="hardAlpha"/>
<feOffset/>
<feGaussianBlur stdDeviation="4.34558"/>
<feComposite in2="hardAlpha" operator="arithmetic" k2="-1" k3="1"/>
<feColorMatrix type="matrix" values="0 0 0 0 1 0 0 0 0 1 0 0 0 0 1 0 0 0 1 0"/>
<feBlend mode="normal" in2="shape" result="effect1_innerShadow_0_41"/>
</filter>
<filter id="filter1_f_0_41" x="1.49884" y="35.3256" width="55.284" height="54.6602" filterUnits="userSpaceOnUse" color-interpolation-filters="sRGB">
<feFlood flood-opacity="0" result="BackgroundImageFix"/>
<feBlend mode="normal" in="SourceGraphic" in2="BackgroundImageFix" result="shape"/>
<feGaussianBlur stdDeviation="4.58479" result="effect1_foregroundBlur_0_41"/>
</filter>
<filter id="filter2_f_0_41" x="8.62094" y="-3.79567" width="57.1604" height="49.6886" filterUnits="userSpaceOnUse" color-interpolation-filters="sRGB">
<feFlood flood-opacity="0" result="BackgroundImageFix"/>
<feBlend mode="normal" in="SourceGraphic" in2="BackgroundImageFix" result="shape"/>
<feGaussianBlur stdDeviation="4.02664" result="effect1_foregroundBlur_0_41"/>
</filter>
<filter id="filter3_f_0_41" x="-17.6652" y="24.6303" width="54.371" height="54.371" filterUnits="userSpaceOnUse" color-interpolation-filters="sRGB">
<feFlood flood-opacity="0" result="BackgroundImageFix"/>
<feBlend mode="normal" in="SourceGraphic" in2="BackgroundImageFix" result="shape"/>
<feGaussianBlur stdDeviation="4.02664" result="effect1_foregroundBlur_0_41"/>
</filter>
<filter id="filter4_f_0_41" x="12.295" y="0.71307" width="55.5271" height="44.9298" filterUnits="userSpaceOnUse" color-interpolation-filters="sRGB">
<feFlood flood-opacity="0" result="BackgroundImageFix"/>
<feBlend mode="normal" in="SourceGraphic" in2="BackgroundImageFix" result="shape"/>
<feGaussianBlur stdDeviation="4.02664" result="effect1_foregroundBlur_0_41"/>
</filter>
<filter id="filter5_f_0_41" x="20.7737" y="28.2659" width="49.9394" height="48.976" filterUnits="userSpaceOnUse" color-interpolation-filters="sRGB">
<feFlood flood-opacity="0" result="BackgroundImageFix"/>
<feBlend mode="normal" in="SourceGraphic" in2="BackgroundImageFix" result="shape"/>
<feGaussianBlur stdDeviation="4.02664" result="effect1_foregroundBlur_0_41"/>
</filter>
<filter id="filter6_f_0_41" x="-12.3762" y="36.5332" width="50.1937" height="47.6433" filterUnits="userSpaceOnUse" color-interpolation-filters="sRGB">
<feFlood flood-opacity="0" result="BackgroundImageFix"/>
<feBlend mode="normal" in="SourceGraphic" in2="BackgroundImageFix" result="shape"/>
<feGaussianBlur stdDeviation="3.30902" result="effect1_foregroundBlur_0_41"/>
</filter>
<filter id="filter7_f_0_41" x="-3.38732" y="50.0736" width="43.0552" height="27.7919" filterUnits="userSpaceOnUse" color-interpolation-filters="sRGB">
<feFlood flood-opacity="0" result="BackgroundImageFix"/>
<feBlend mode="normal" in="SourceGraphic" in2="BackgroundImageFix" result="shape"/>
<feGaussianBlur stdDeviation="2.61798" result="effect1_foregroundBlur_0_41"/>
</filter>
<filter id="filter8_f_0_41" x="32.1662" y="43.8647" width="32.2964" height="34.9409" filterUnits="userSpaceOnUse" color-interpolation-filters="sRGB">
<feFlood flood-opacity="0" result="BackgroundImageFix"/>
<feBlend mode="normal" in="SourceGraphic" in2="BackgroundImageFix" result="shape"/>
<feGaussianBlur stdDeviation="2.05983" result="effect1_foregroundBlur_0_41"/>
</filter>
<filter id="filter9_f_0_41" x="47.5819" y="38.0176" width="32.2964" height="34.9409" filterUnits="userSpaceOnUse" color-interpolation-filters="sRGB">
<feFlood flood-opacity="0" result="BackgroundImageFix"/>
<feBlend mode="normal" in="SourceGraphic" in2="BackgroundImageFix" result="shape"/>
<feGaussianBlur stdDeviation="2.05983" result="effect1_foregroundBlur_0_41"/>
</filter>
<filter id="filter10_f_0_41" x="14.4304" y="3.61657" width="63.7992" height="63.4564" filterUnits="userSpaceOnUse" color-interpolation-filters="sRGB">
<feFlood flood-opacity="0" result="BackgroundImageFix"/>
<feBlend mode="normal" in="SourceGraphic" in2="BackgroundImageFix" result="shape"/>
<feGaussianBlur stdDeviation="4.02664" result="effect1_foregroundBlur_0_41"/>
</filter>
<filter id="filter11_f_0_41" x="37.47" y="16.3621" width="56.5578" height="51.7628" filterUnits="userSpaceOnUse" color-interpolation-filters="sRGB">
<feFlood flood-opacity="0" result="BackgroundImageFix"/>
<feBlend mode="normal" in="SourceGraphic" in2="BackgroundImageFix" result="shape"/>
<feGaussianBlur stdDeviation="4.02664" result="effect1_foregroundBlur_0_41"/>
</filter>
<filter id="filter12_f_0_41" x="27.3374" y="1.94311" width="50.8189" height="50.1951" filterUnits="userSpaceOnUse" color-interpolation-filters="sRGB">
<feFlood flood-opacity="0" result="BackgroundImageFix"/>
<feBlend mode="normal" in="SourceGraphic" in2="BackgroundImageFix" result="shape"/>
<feGaussianBlur stdDeviation="4.02664" result="effect1_foregroundBlur_0_41"/>
</filter>
<filter id="filter13_f_0_41" x="23.6309" y="20.1022" width="42.5257" height="44.16" filterUnits="userSpaceOnUse" color-interpolation-filters="sRGB">
<feFlood flood-opacity="0" result="BackgroundImageFix"/>
<feBlend mode="normal" in="SourceGraphic" in2="BackgroundImageFix" result="shape"/>
<feGaussianBlur stdDeviation="3.72099" result="effect1_foregroundBlur_0_41"/>
</filter>
<filter id="filter14_f_0_41" x="12.9343" y="29.618" width="58.7722" height="46.1956" filterUnits="userSpaceOnUse" color-interpolation-filters="sRGB">
<feFlood flood-opacity="0" result="BackgroundImageFix"/>
<feBlend mode="normal" in="SourceGraphic" in2="BackgroundImageFix" result="shape"/>
<feGaussianBlur stdDeviation="4.02664" result="effect1_foregroundBlur_0_41"/>
</filter>
<filter id="filter15_iii_0_41" x="11.0007" y="11.501" width="58.2077" height="58.1248" filterUnits="userSpaceOnUse" color-interpolation-filters="sRGB">
<feFlood flood-opacity="0" result="BackgroundImageFix"/>
<feBlend mode="normal" in="SourceGraphic" in2="BackgroundImageFix" result="shape"/>
<feColorMatrix in="SourceAlpha" type="matrix" values="0 0 0 0 0 0 0 0 0 0 0 0 0 0 0 0 0 0 127 0" result="hardAlpha"/>
<feOffset/>
<feGaussianBlur stdDeviation="2.9635"/>
<feComposite in2="hardAlpha" operator="arithmetic" k2="-1" k3="1"/>
<feColorMatrix type="matrix" values="0 0 0 0 1 0 0 0 0 1 0 0 0 0 1 0 0 0 1 0"/>
<feBlend mode="normal" in2="shape" result="effect1_innerShadow_0_41"/>
<feColorMatrix in="SourceAlpha" type="matrix" values="0 0 0 0 0 0 0 0 0 0 0 0 0 0 0 0 0 0 127 0" result="hardAlpha"/>
<feOffset/>
<feGaussianBlur stdDeviation="1.97593"/>
<feComposite in2="hardAlpha" operator="arithmetic" k2="-1" k3="1"/>
<feColorMatrix type="matrix" values="0 0 0 0 0.228985 0 0 0 0 0.742995 0 0 0 0 1 0 0 0 1 0"/>
<feBlend mode="normal" in2="effect1_innerShadow_0_41" result="effect2_innerShadow_0_41"/>
<feColorMatrix in="SourceAlpha" type="matrix" values="0 0 0 0 0 0 0 0 0 0 0 0 0 0 0 0 0 0 127 0" result="hardAlpha"/>
<feOffset dy="1.06314"/>
<feGaussianBlur stdDeviation="1.7276"/>
<feComposite in2="hardAlpha" operator="arithmetic" k2="-1" k3="1"/>
<feColorMatrix type="matrix" values="0 0 0 0 1 0 0 0 0 1 0 0 0 0 1 0 0 0 0.25 0"/>
<feBlend mode="normal" in2="effect2_innerShadow_0_41" result="effect3_innerShadow_0_41"/>
</filter>
</defs>
</svg>
